<svg width="50" height="51" viewBox="0 0 50 51" fill="none" xmlns="http://www.w3.org/2000/svg">
<g id="facebook_svgrepo.com">
<path id="Vector" d="M25 4.7497C13.5416 4.7497 4.16663 14.1039 4.16663 25.6247C4.16663 36.0414 11.7916 44.6872 21.75 46.2497V31.6664H16.4583V25.6247H21.75V21.0205C21.75 15.7914 24.8541 12.9164 29.625 12.9164C31.8958 12.9164 34.2708 13.3122 34.2708 13.3122V18.458H31.6458C29.0625 18.458 28.25 20.0622 28.25 21.7081V25.6247H34.0416L33.1041 31.6664H28.25V46.2497C33.1591 45.4743 37.6295 42.9695 40.8539 39.1872C44.0783 35.4052 45.8445 30.5947 45.8333 25.6247C45.8333 14.1039 36.4583 4.7497 25 4.7497Z" fill="#FFA5AA"/>
</g>
</svg>
