<svg width="50" height="50" viewBox="0 0 50 50" fill="none" xmlns="http://www.w3.org/2000/svg">
<g id="whatsapp_svgrepo.com">
<path id="Vector" d="M12.5292 16.6794C12.7672 14.7967 15.2141 12.2378 17.156 12.5217L17.1529 12.5186C19.0427 12.8778 20.5387 16.1304 21.3823 17.593C21.98 18.6542 21.5919 19.7294 21.0344 20.1831C20.2823 20.7892 19.1062 21.6256 19.353 22.4654C19.7917 23.9583 25 29.1667 27.5617 30.6473C28.5313 31.2077 29.2344 29.7296 29.8348 28.9723C30.271 28.3898 31.3471 28.0417 32.4058 28.6167C33.9871 29.5375 35.4767 30.6077 36.8542 31.8125C37.5421 32.3875 37.7035 33.2373 37.2269 34.1354C36.3873 35.7173 33.959 37.8033 32.1963 37.3794C29.1175 36.6392 16.6667 31.8125 12.6674 17.8292C12.4424 17.1677 12.4991 16.9176 12.5292 16.6794Z" fill="#FFA5AA"/>
<path id="Vector_2" fill-rule="evenodd" clip-rule="evenodd" d="M25 47.9167C22.4509 47.9167 21.0405 47.6431 18.75 46.875L14.3634 49.0683C11.593 50.4535 8.33337 48.439 8.33337 45.3415V40.625C3.84702 36.4417 2.08337 31.6181 2.08337 25C2.08337 12.3435 12.3435 2.08334 25 2.08334C37.6565 2.08334 47.9167 12.3435 47.9167 25C47.9167 37.6565 37.6565 47.9167 25 47.9167ZM12.5 38.8131L11.1749 37.5775C7.68935 34.3275 6.25004 30.694 6.25004 25C6.25004 14.6447 14.6447 6.25 25 6.25C35.3555 6.25 43.75 14.6447 43.75 25C43.75 35.3554 35.3555 43.75 25 43.75C22.9465 43.75 21.9834 43.5646 20.0749 42.9246L18.4344 42.3744L12.5 45.3415V38.8131Z" fill="#FFA5AA"/>
</g>
</svg>
